<svg xmlns="http://www.w3.org/2000/svg" xmlns:xlink="http://www.w3.org/1999/xlink" xmlns:sketch="http://www.bohemiancoding.com/sketch/ns" viewBox="0 0 30 37.5" version="1.1" x="0px" y="0px"><title>emotion_040-smile-happy-wink-face-avatar-emoticon-expression-mood</title><desc>Created with Sketch.</desc><g stroke="none" stroke-width="1" fill="none" fill-rule="evenodd" sketch:type="MSPage"><g sketch:type="MSArtboardGroup" transform="translate(-900.000000, -90.000000)" fill="#000000"><path d="M915,119 C922.731986,119 929,112.731986 929,105 C929,97.2680135 922.731986,91 915,91 C907.268014,91 901,97.2680135 901,105 C901,112.731986 907.268014,119 915,119 Z M906.620839,110.57983 C907.076495,111.191881 907.624917,111.803032 908.268163,112.373951 C910.114324,114.012529 912.359156,115 915,115 C917.640844,115 919.885676,114.012529 921.731837,112.373951 C922.375083,111.803032 922.923505,111.191881 923.379161,110.57983 C923.655018,110.209291 923.840645,109.91709 923.937484,109.74209 C924.071187,109.500474 923.983706,109.196219 923.74209,109.062516 C923.500474,108.928813 923.196219,109.016294 923.062516,109.25791 C922.986428,109.39541 922.82464,109.650084 922.577039,109.98267 C922.160264,110.542494 921.657093,111.103218 921.068029,111.626049 C919.3933,113.112471 917.375666,114 915,114 C912.624334,114 910.6067,113.112471 908.931971,111.626049 C908.342907,111.103218 907.839736,110.542494 907.422961,109.98267 C907.17536,109.650084 907.013572,109.39541 906.937484,109.25791 C906.803781,109.016294 906.499526,108.928813 906.25791,109.062516 C906.016294,109.196219 905.928813,109.500474 906.062516,109.74209 C906.159355,109.91709 906.344982,110.209291 906.620839,110.57983 Z M919.217851,103.499906 L922.323613,105.052786 C922.570602,105.176281 922.670714,105.476618 922.54722,105.723607 C922.423725,105.970596 922.123389,106.070708 921.876399,105.947214 L917.876399,103.947214 C917.507875,103.762951 917.507875,103.237049 917.876399,103.052786 L921.876399,101.052786 C922.123389,100.929292 922.423725,101.029404 922.54722,101.276393 C922.670714,101.523382 922.570602,101.823719 922.323613,101.947214 L919.217851,103.499906 Z M910.06066,105.889087 C910.255922,106.084349 910.572505,106.084349 910.767767,105.889087 L913.242641,103.414214 C914.023689,102.633165 914.023689,101.366835 913.242641,100.585786 C912.461592,99.8047379 911.195262,99.8047379 910.414214,100.585786 C909.636397,99.8079701 908.366835,99.8047379 907.585786,100.585786 C906.804738,101.366835 906.804738,102.633165 907.585786,103.414214 L910.06066,105.889087 Z" sketch:type="MSShapeGroup"/></g></g><text x="0" y="45" fill="#000000" font-size="5px" font-weight="bold" font-family="'Helvetica Neue', Helvetica, Arial-Unicode, Arial, Sans-serif">Created by Pham Thi Dieu Linh</text><text x="0" y="50" fill="#000000" font-size="5px" font-weight="bold" font-family="'Helvetica Neue', Helvetica, Arial-Unicode, Arial, Sans-serif">from the Noun Project</text></svg>