<svg xmlns="http://www.w3.org/2000/svg" xmlns:xlink="http://www.w3.org/1999/xlink" viewBox="0 0 100 125" version="1.1" x="0px" y="0px"><title>magn_gls-9 copy 2</title><desc>Created with Sketch.</desc><g stroke="none" stroke-width="1" fill="none" fill-rule="evenodd"><path d="M92.32,30.836 C92.32,30.649 92.169,30.498 91.981,30.498 L88.666,30.498 L88.666,73.311 C88.666,75.082 87.23,76.518 85.459,76.518 L16.538,76.518 L16.538,79.888 C16.538,80.075 16.69,80.227 16.877,80.227 L89.812,80.227 C91.197,80.227 92.32,79.104 92.32,77.718 L92.32,30.836 Z M85.459,73.671 C85.657,73.671 85.819,73.51 85.819,73.311 L85.819,27.818 L7.847,27.818 L7.847,73.311 C7.847,73.51 8.008,73.671 8.206,73.671 L85.459,73.671 Z M9.753,22.803 C9.753,23.721 10.497,24.464 11.414,24.464 C12.331,24.464 13.074,23.721 13.074,22.803 C13.074,21.886 12.331,21.143 11.414,21.143 C10.497,21.143 9.753,21.886 9.753,22.803 L9.753,22.803 Z M15.368,22.803 C15.368,23.721 16.111,24.464 17.028,24.464 C17.945,24.464 18.689,23.721 18.689,22.803 C18.689,21.886 17.945,21.143 17.028,21.143 C16.111,21.143 15.368,21.886 15.368,22.803 L15.368,22.803 Z M20.982,22.803 C20.982,23.721 21.726,24.464 22.643,24.464 C23.56,24.464 24.304,23.721 24.304,22.803 C24.304,21.886 23.56,21.143 22.643,21.143 C21.726,21.143 20.982,21.886 20.982,22.803 L20.982,22.803 Z M95,30.836 L95,78.506 C95,80.936 93.03,82.907 90.599,82.907 L16.877,82.907 C15.21,82.907 13.858,81.555 13.858,79.888 L13.858,76.518 L8.206,76.518 C6.435,76.518 5,75.082 5,73.311 L5,21.206 C5,19.435 6.435,18 8.206,18 L85.459,18 C87.23,18 88.666,19.435 88.666,21.206 L88.666,27.818 L91.981,27.818 C93.649,27.818 95,29.169 95,30.836 L95,30.836 Z M30.708,41.548 C30.708,43.985 32.684,45.961 35.121,45.961 C37.558,45.961 39.534,43.985 39.534,41.548 C39.534,39.11 37.558,37.134 35.121,37.134 C32.684,37.134 30.708,39.11 30.708,41.548 L30.708,41.548 Z M54.286,41.548 C54.286,43.985 56.262,45.961 58.7,45.961 C61.137,45.961 63.113,43.985 63.113,41.548 C63.113,39.11 61.137,37.134 58.7,37.134 C56.262,37.134 54.286,39.11 54.286,41.548 L54.286,41.548 Z M46.846,63.919 C38.695,63.919 31.062,61.176 26.432,56.584 L29.109,53.889 C33.042,57.792 39.673,60.124 46.846,60.124 C54.022,60.124 60.654,57.794 64.583,53.889 L67.259,56.584 C62.633,61.176 55.001,63.919 46.846,63.919 L46.846,63.919 Z" fill="#000000"/></g><text x="0" y="115" fill="#000000" font-size="5px" font-weight="bold" font-family="'Helvetica Neue', Helvetica, Arial-Unicode, Arial, Sans-serif">Created by Ben Iconator</text><text x="0" y="120" fill="#000000" font-size="5px" font-weight="bold" font-family="'Helvetica Neue', Helvetica, Arial-Unicode, Arial, Sans-serif">from the Noun Project</text></svg>