<svg xmlns="http://www.w3.org/2000/svg" xmlns:xlink="http://www.w3.org/1999/xlink" version="1.1" x="0px" y="0px" viewBox="0 0 64 80" style="enable-background:new 0 0 64 64;" xml:space="preserve"><g><path d="M48,1c-7.376,0-13.652,4.731-16,11.311C29.652,5.731,23.376,1,16,1H7v1c0,9.374,7.626,17,17,17h7v9h-8v4h-2v2h2v2h-2v2h2   v0.291c-3.184,2.673-5,6.548-5,10.709c0,7.72,6.28,14,14,14s14-6.28,14-14c0-4.161-1.816-8.036-5-10.709V38h2v-2h-2v-2h2v-2h-2v-4   h-8v-9h7c9.374,0,17-7.626,17-17V1H48z M24,17C16.065,17,9.55,10.806,9.033,3H16c7.935,0,14.45,6.194,14.967,14H24z M39.384,39.555   C42.317,41.852,44,45.294,44,49c0,6.617-5.383,12-12,12s-12-5.383-12-12c0-3.706,1.683-7.148,4.616-9.445l0.384-0.3V38h6v6.101   c-2.279,0.465-4,2.484-4,4.899c0,2.757,2.243,5,5,5s5-2.243,5-5c0-2.414-1.721-4.434-4-4.899V38h6v1.255L39.384,39.555z M32,46   c1.654,0,3,1.346,3,3s-1.346,3-3,3s-3-1.346-3-3S30.346,46,32,46z M39,36H25v-2h14V36z M39,32H25v-2h14V32z M40,17h-6.967   C33.55,9.194,40.065,3,48,3h6.967C54.45,10.806,47.935,17,40,17z"/><rect x="35" y="24" width="2" height="2"/><rect x="39" y="24" width="2" height="2"/><rect x="27" y="24" width="2" height="2"/><rect x="23" y="24" width="2" height="2"/></g><text x="0" y="79" fill="#000000" font-size="5px" font-weight="bold" font-family="'Helvetica Neue', Helvetica, Arial-Unicode, Arial, Sans-serif">Created by Eucalyp</text><text x="0" y="84" fill="#000000" font-size="5px" font-weight="bold" font-family="'Helvetica Neue', Helvetica, Arial-Unicode, Arial, Sans-serif">from the Noun Project</text></svg>