<svg xmlns="http://www.w3.org/2000/svg" xmlns:xlink="http://www.w3.org/1999/xlink" version="1.1" preserveAspectRatio="none" x="0px" y="0px" viewBox="0 0 100 125"><defs><g id="b"><path fill="#000000" stroke="none" d=" M 81.8 81.8 Q 95 68.6 95 50 95 31.45 81.8 18.15 68.6 5 50 5 31.35 5 18.1 18.15 12.3 24.05 9.05 30.95 7.95 33.25 6.8 36.65 5 42.95 5 50 5 68.7 18.1 81.8 21.721484375 85.421484375 25.55 87.95 25.9005859375 88.1794921875 26.25 88.4 36.75 95 50 95 63.2 95 73.55 88.4 73.905859375 88.1791015625 74.25 87.95 78.2189453125 85.3810546875 81.8 81.8 M 50 11.6 Q 65.9 11.6 77.05 22.85 88.3 34.1 88.3 50 88.3 65.95 77.05 77.1 68.0021484375 86.22890625 55.8 87.95 52.99765625 88.35 50 88.35 46.9927734375 88.35 44.15 87.95 31.9384765625 86.22890625 22.85 77.1 11.6 65.95 11.6 50 11.6 42.9 13.85 36.65 14.85 33.85 16.5 30.95 19.1 26.6 22.85 22.85 34.05 11.6 50 11.6 M 44.6 48.1 Q 44.15 45.3 41.5 44.55 36 43.9 30.7 44.85 27.65 45.75 27.45 48 27.7 51.15 31.55 50.1 33.35 49.2 36.2 49.45 41.7 50.55 42.55 50.5 44.8 50.1 44.6 48.1 M 58.55 44.55 Q 55.9 45.3 55.45 48.1 55.25 50.1 57.5 50.5 58.35 50.55 63.85 49.45 66.7 49.2 68.5 50.1 72.35 51.15 72.6 48 72.4 45.75 69.35 44.85 64.05 43.9 58.55 44.55 Z"/></g><g id="a"><path fill="#000000" stroke="none" d=" M 3.7 29.85 Q 6.25 32.4 11.25 34.5 15.9 36.6 20.3 36.6 24.6 36.6 29.3 34.5 34.35 32.35 36.85 29.85 39.45 27.5 40.55 25.65 40.85 24.05 39.2 24.7 32.9 28.9 27.8 30.4 24.5 31.2 20.3 31.4 15.95 31.2 12.8 30.4 7.7 28.95 1.3 24.7 -0.3 24.05 0.05 25.65 1.05 27.4 3.7 29.85 Z"/></g></defs><g transform="matrix( 1, 0, 0, 1, 0,0) "><use xlink:href="#b"/></g><g transform="matrix( 1, 0, 0, 1, 29.7,34.2) "><g transform="matrix( 1, 0, 0, 1, 0,0) "><use xlink:href="#a"/></g></g><text x="0" y="115" fill="#000000" font-size="5px" font-weight="bold" font-family="'Helvetica Neue', Helvetica, Arial-Unicode, Arial, Sans-serif">Created by Miso Duzek</text><text x="0" y="120" fill="#000000" font-size="5px" font-weight="bold" font-family="'Helvetica Neue', Helvetica, Arial-Unicode, Arial, Sans-serif">from the Noun Project</text></svg>