<svg xmlns="http://www.w3.org/2000/svg" xmlns:xlink="http://www.w3.org/1999/xlink" version="1.1" x="0px" y="0px" viewBox="0 0 100 125" enable-background="new 0 0 100 100" xml:space="preserve"><path d="M24.253,23.668c7.85-13.847,25.433-18.716,39.285-10.874c13.855,7.849,18.721,25.434,10.875,39.288L49.334,96.357  L24.253,52.082C19.263,43.27,19.263,32.485,24.253,23.668z M27.122,50.456l22.212,39.226l22.217-39.226  c6.946-12.267,2.634-27.845-9.636-34.791c-12.268-6.953-27.846-2.64-34.793,9.628C22.703,33.102,22.703,42.653,27.122,50.456z"/><path d="M55.429,37.874c0,3.367-2.729,6.095-6.095,6.095c-3.368,0-6.087-2.728-6.087-6.095c0-3.361,2.719-6.095,6.087-6.095  C52.7,31.779,55.429,34.513,55.429,37.874L55.429,37.874z M59.107,37.874c0-5.399-4.376-9.774-9.773-9.774  c-5.396,0-9.775,4.375-9.775,9.774c0,5.4,4.38,9.776,9.775,9.776C54.731,47.65,59.107,43.274,59.107,37.874L59.107,37.874z"/><g><path d="M57.972,29.45h3.32c0.412,0,0.734-0.325,0.734-0.734c0-0.403-0.322-0.734-0.734-0.734h-1.551l3.478-3.479   c0.286-0.287,0.286-0.75,0-1.036c-0.282-0.287-0.749-0.287-1.035,0l-3.478,3.482v-1.558c0-0.402-0.332-0.733-0.734-0.733   c-0.404,0-0.734,0.331-0.734,0.733v3.323C57.237,29.125,57.567,29.45,57.972,29.45"/></g><g><path d="M40.701,29.45h-3.327c-0.404,0-0.733-0.325-0.733-0.734c0-0.403,0.329-0.734,0.733-0.734h1.559l-3.485-3.479   c-0.286-0.287-0.286-0.75,0-1.036c0.284-0.287,0.751-0.287,1.037,0l3.483,3.482v-1.558c0-0.402,0.326-0.733,0.727-0.733   c0.411,0,0.734,0.331,0.734,0.733v3.323c0,0.409-0.328,0.734-0.734,0.734"/></g><g><path d="M57.972,46.3h3.32c0.412,0,0.734,0.33,0.734,0.734c0,0.409-0.322,0.734-0.734,0.734h-1.551l3.478,3.478   c0.286,0.286,0.286,0.751,0,1.035c-0.282,0.293-0.749,0.293-1.035,0l-3.478-3.478v1.552c0,0.408-0.332,0.74-0.734,0.74   c-0.404,0-0.734-0.332-0.734-0.74v-3.321c0-0.409,0.33-0.734,0.742-0.734"/></g><g><path d="M40.701,46.3h-3.327c-0.404,0-0.733,0.33-0.733,0.734c0,0.409,0.329,0.734,0.733,0.734h1.559l-3.485,3.478   c-0.286,0.286-0.286,0.751,0,1.035c0.284,0.293,0.751,0.293,1.037,0l3.483-3.478v1.552c0,0.408,0.326,0.74,0.727,0.74   c0.411,0,0.734-0.332,0.734-0.74v-3.321c0-0.404-0.323-0.734-0.734-0.734"/></g><text x="0" y="115" fill="#000000" font-size="5px" font-weight="bold" font-family="'Helvetica Neue', Helvetica, Arial-Unicode, Arial, Sans-serif">Created by Aldric Rodríguez Iborra</text><text x="0" y="120" fill="#000000" font-size="5px" font-weight="bold" font-family="'Helvetica Neue', Helvetica, Arial-Unicode, Arial, Sans-serif">from the Noun Project</text></svg>