<svg xmlns="http://www.w3.org/2000/svg" xmlns:xlink="http://www.w3.org/1999/xlink" version="1.1" x="0px" y="0px" viewBox="0 0 100 125" style="enable-background:new 0 0 100 100;" xml:space="preserve"><style type="text/css">
	.st0{fill:none;stroke:#000000;stroke-width:2;stroke-linecap:round;stroke-miterlimit:10;}
	.st1{fill:none;stroke:#000000;stroke-width:2;stroke-linecap:round;stroke-linejoin:round;stroke-miterlimit:10;}
	.st2{fill:none;stroke:#000000;stroke-width:2;stroke-miterlimit:10;}
</style><path d="M43.5,55.6c-0.7-0.2-1.4,0-2,0.3c-0.6,0.4-1,0.9-1.2,1.6l-0.6,2.8c-0.2,0.7,0,1.4,0.3,2c0.4,0.6,0.9,1,1.6,1.2l9.6,2.2H32.7  c-1.4,0-2.6,1.2-2.6,2.6v2.9c0,1.4,1.2,2.6,2.6,2.6h3.3c0,0.2-0.1,0.4-0.1,0.6v2.9c0,1.4,1.2,2.6,2.6,2.6h25.9  c1.4,0,2.6-1.2,2.6-2.6v-2.9c0-1.4-1.2-2.6-2.6-2.6h-3.3c0-0.2,0.1-0.4,0.1-0.6v-2.9c0-0.1,0-0.2,0-0.3l5.7,1.3  c0.2,0,0.4,0.1,0.6,0.1c0.5,0,1-0.1,1.4-0.4c0.6-0.4,1-0.9,1.2-1.6l0.6-2.8c0.3-1.4-0.6-2.8-2-3.1L43.5,55.6z M32.7,71.8  c-0.3,0-0.6-0.3-0.6-0.6v-2.9c0-0.3,0.3-0.6,0.6-0.6h25.9c0.3,0,0.6,0.3,0.6,0.6v2.9c0,0.3-0.3,0.6-0.6,0.6h-20H32.7z M64.4,73.8  c0.3,0,0.6,0.3,0.6,0.6v2.9c0,0.3-0.3,0.6-0.6,0.6H38.6c-0.3,0-0.6-0.3-0.6-0.6v-2.9c0-0.3,0.3-0.6,0.6-0.6h20H64.4z M68.7,64.2  L68.1,67c-0.1,0.3-0.4,0.5-0.7,0.5l-25.2-5.8c-0.2,0-0.3-0.1-0.4-0.3c-0.1-0.1-0.1-0.3-0.1-0.5l0.6-2.8c0.1-0.3,0.4-0.5,0.7-0.5  l25.2,5.8c0.2,0,0.3,0.1,0.4,0.3C68.7,63.8,68.8,64,68.7,64.2z"/><path d="M40.5,31.7l24.2,9.2c0.3,0.1,0.6,0.2,0.9,0.2c1.1,0,2-0.6,2.4-1.7l1-2.7c0.2-0.6,0.2-1.4-0.1-2s-0.8-1.1-1.5-1.4l-24.2-9.2  c-1.3-0.5-2.9,0.2-3.4,1.5l-1,2.7C38.5,29.7,39.2,31.2,40.5,31.7z M40.9,29l1-2.7c0.1-0.3,0.5-0.5,0.8-0.4l24.2,9.2  c0.2,0.1,0.3,0.2,0.3,0.3c0.1,0.1,0.1,0.3,0,0.5l-1,2.7C66,39,65.7,39.2,65.4,39l-24.2-9.2C40.9,29.7,40.7,29.3,40.9,29z"/><path d="M27,48.7c0.1,0.7,0.4,1.3,1,1.7c0.5,0.4,1,0.5,1.6,0.5c0.1,0,0.2,0,0.3,0l25.6-3.3c1.4-0.2,2.4-1.5,2.3-2.9l-0.4-2.8  c-0.1-0.7-0.4-1.3-1-1.7c-0.6-0.4-1.2-0.6-1.9-0.5l-25.6,3.3c-1.4,0.2-2.4,1.5-2.3,2.9L27,48.7z M29.1,44.9l25.6-3.3  c0,0,0.1,0,0.1,0c0.1,0,0.3,0,0.4,0.1c0.1,0.1,0.2,0.2,0.2,0.4l0.4,2.8c0,0.3-0.2,0.6-0.5,0.7l-25.6,3.3c-0.2,0-0.3,0-0.5-0.1  S29,48.6,29,48.4l-0.4-2.8C28.5,45.2,28.8,44.9,29.1,44.9z"/><text x="0" y="115" fill="#000000" font-size="5px" font-weight="bold" font-family="'Helvetica Neue', Helvetica, Arial-Unicode, Arial, Sans-serif">Created by Made by Made</text><text x="0" y="120" fill="#000000" font-size="5px" font-weight="bold" font-family="'Helvetica Neue', Helvetica, Arial-Unicode, Arial, Sans-serif">from the Noun Project</text></svg>