<svg xmlns="http://www.w3.org/2000/svg" xmlns:xlink="http://www.w3.org/1999/xlink" version="1.1" x="0px" y="0px" viewBox="0 0 24 30" enable-background="new 0 0 24 24" xml:space="preserve"><g><path d="M16.95,10.036c0.801,0,1.555-0.312,2.121-0.878c1.17-1.17,1.17-3.073,0-4.243c-1.133-1.133-3.109-1.133-4.242,0   c-0.921,0.921-1.105,2.291-0.577,3.405L14.013,8.56c-1.229-0.694-2.795-0.694-4.025,0L9.748,8.32   c0.529-1.113,0.344-2.484-0.577-3.405c-1.133-1.133-3.109-1.133-4.242,0c-1.17,1.17-1.17,3.073,0,4.243   c0.566,0.566,1.32,0.878,2.121,0.878c0.454,0,0.888-0.11,1.286-0.3l0.229,0.229C8.206,10.573,8,11.262,8,11.986   c0,0.726,0.206,1.413,0.564,2.021l-0.239,0.238c-1.111-0.501-2.51-0.318-3.396,0.568c-1.17,1.17-1.17,3.073,0,4.243   c0.566,0.566,1.32,0.878,2.121,0.878s1.555-0.312,2.121-0.878c0.921-0.921,1.105-2.292,0.577-3.405l0.23-0.23   c0.608,0.359,1.297,0.564,2.021,0.564s1.413-0.205,2.021-0.564l0.23,0.23c-0.529,1.113-0.344,2.484,0.577,3.405   c0.566,0.566,1.32,0.878,2.121,0.878s1.555-0.312,2.121-0.878c1.17-1.17,1.17-3.073,0-4.243c-0.887-0.887-2.285-1.069-3.396-0.568   l-0.239-0.238C15.794,13.399,16,12.711,16,11.986c0-0.726-0.206-1.413-0.564-2.021l0.229-0.229   C16.062,9.926,16.496,10.036,16.95,10.036z M16.243,6.329c0.188-0.188,0.44-0.292,0.707-0.292s0.519,0.104,0.707,0.292   c0.39,0.391,0.39,1.024,0,1.415c-0.377,0.377-1.037,0.377-1.414,0C15.853,7.354,15.853,6.72,16.243,6.329z M6.343,7.744   c-0.39-0.391-0.39-1.024,0-1.415c0.188-0.188,0.44-0.292,0.707-0.292s0.519,0.104,0.707,0.292c0.39,0.391,0.39,1.024,0,1.415   C7.38,8.121,6.72,8.121,6.343,7.744z M7.757,17.644c-0.377,0.377-1.037,0.377-1.414,0c-0.39-0.391-0.39-1.024,0-1.415   c0.188-0.188,0.44-0.292,0.707-0.292s0.519,0.104,0.707,0.292C8.147,16.619,8.147,17.253,7.757,17.644z M10.586,13.4   C10.208,13.022,10,12.521,10,11.986s0.208-1.036,0.586-1.414S11.466,9.986,12,9.986s1.036,0.208,1.414,0.586S14,11.452,14,11.986   s-0.208,1.036-0.586,1.414C12.658,14.156,11.342,14.156,10.586,13.4z M17.657,16.229c0.39,0.391,0.39,1.024,0,1.415   c-0.377,0.377-1.037,0.377-1.414,0c-0.39-0.391-0.39-1.024,0-1.415c0.188-0.188,0.44-0.292,0.707-0.292S17.468,16.04,17.657,16.229   z"/></g><text x="0" y="39" fill="#000000" font-size="5px" font-weight="bold" font-family="'Helvetica Neue', Helvetica, Arial-Unicode, Arial, Sans-serif">Created by Ralf Schmitzer</text><text x="0" y="44" fill="#000000" font-size="5px" font-weight="bold" font-family="'Helvetica Neue', Helvetica, Arial-Unicode, Arial, Sans-serif">from the Noun Project</text></svg>