<svg xmlns="http://www.w3.org/2000/svg" xmlns:xlink="http://www.w3.org/1999/xlink" version="1.1" x="0px" y="0px" viewBox="0 0 100 125" enable-background="new 0 0 100 100" xml:space="preserve"><path d="M18.1,78.3h17.4L50,98l14.5-19.7h17.4c6.1,0,11-4.9,11-11V13c0-6.1-4.9-11-11-11H18.1C12,2,7.1,7,7.1,13v54.2  C7.1,73.4,12,78.3,18.1,78.3z M50,16c6.2,0,11.2,5,11.2,11.2c0,6.2-5,11.2-11.2,11.2s-11.2-5-11.2-11.2C38.8,21,43.8,16,50,16z   M50,42c12.3,0,22.3,10,22.3,22.3H27.7C27.7,52,37.7,42,50,42z"/><text x="0" y="115" fill="#000000" font-size="5px" font-weight="bold" font-family="'Helvetica Neue', Helvetica, Arial-Unicode, Arial, Sans-serif">Created by Gregor Črešnar</text><text x="0" y="120" fill="#000000" font-size="5px" font-weight="bold" font-family="'Helvetica Neue', Helvetica, Arial-Unicode, Arial, Sans-serif">from the Noun Project</text></svg>