<svg xmlns="http://www.w3.org/2000/svg" xmlns:xlink="http://www.w3.org/1999/xlink" version="1.1" x="0px" y="0px" viewBox="0 0 100 125" enable-background="new 0 0 100 100" xml:space="preserve"><path d="M64.786,49.881c0,7.92-6.419,14.342-14.341,14.342c-7.919,0-14.341-6.422-14.341-14.342s6.422-14.342,14.341-14.342  C58.367,35.539,64.786,41.961,64.786,49.881L64.786,49.881z M73.452,49.881c0-12.706-10.301-23.006-23.007-23.006  s-23.006,10.3-23.006,23.006c0,12.707,10.3,23.006,23.006,23.006S73.452,62.588,73.452,49.881L73.452,49.881z"/><g><path d="M70.771,30.052h7.828c0.95,0,1.725-0.773,1.725-1.725c0-0.953-0.774-1.725-1.725-1.725h-3.659l8.19-8.19   c0.672-0.675,0.672-1.766,0-2.44c-0.675-0.674-1.766-0.674-2.44,0l-8.19,8.192v-3.661c0-0.952-0.772-1.724-1.726-1.724   s-1.726,0.772-1.726,1.724v7.825c0,0.952,0.772,1.725,1.726,1.725"/></g><g><path d="M30.124,30.052h-7.828c-0.953,0-1.725-0.773-1.725-1.725c0-0.953,0.772-1.725,1.725-1.725h3.659l-8.19-8.19   c-0.675-0.675-0.675-1.766,0-2.44c0.672-0.674,1.766-0.674,2.438,0l8.19,8.192v-3.661c0-0.952,0.775-1.724,1.725-1.724   c0.953,0,1.725,0.772,1.725,1.724v7.825c-0.003,0.957-0.775,1.727-1.729,1.725"/></g><g><path d="M70.771,69.711h7.828c0.95,0,1.725,0.771,1.725,1.725s-0.774,1.726-1.725,1.726h-3.659l8.19,8.19   c0.672,0.674,0.672,1.766,0,2.439c-0.675,0.674-1.766,0.674-2.44,0l-8.19-8.191v3.66c0,0.953-0.772,1.725-1.726,1.725   s-1.726-0.771-1.726-1.725v-7.824c0.004-0.957,0.779-1.728,1.732-1.725"/></g><g><path d="M30.124,69.711h-7.828c-0.953,0-1.725,0.771-1.725,1.725s0.772,1.726,1.725,1.726h3.659l-8.19,8.19   c-0.675,0.674-0.675,1.766,0,2.439c0.672,0.674,1.766,0.674,2.438,0l8.19-8.191v3.66c0,0.953,0.775,1.725,1.725,1.725   c0.953,0,1.725-0.771,1.725-1.725v-7.824c0-0.953-0.772-1.725-1.725-1.725"/></g><text x="0" y="115" fill="#000000" font-size="5px" font-weight="bold" font-family="'Helvetica Neue', Helvetica, Arial-Unicode, Arial, Sans-serif">Created by Aldric Rodríguez Iborra</text><text x="0" y="120" fill="#000000" font-size="5px" font-weight="bold" font-family="'Helvetica Neue', Helvetica, Arial-Unicode, Arial, Sans-serif">from the Noun Project</text></svg>