<svg xmlns="http://www.w3.org/2000/svg" xmlns:xlink="http://www.w3.org/1999/xlink" viewBox="0 0 100 125" version="1.1" x="0px" y="0px"><title>Artboard 1 Copy 3</title><desc>Created with Sketch.</desc><g stroke="none" stroke-width="1" fill="none" fill-rule="evenodd"><g fill="#000000"><path d="M83,18 L79.997,18 L20.003,18 L17,18 L17,14 L20.993,14 L79.008,14 L83,14 L83,18 Z M76.2,32.516 L76.141,33 L23.859,33 L23.8,32.516 L22.518,22 L77.482,22 L76.2,32.516 Z M75.469,69 L75.293,69 L74,69 L71.751,69 L28.25,69 L25,69 L24.708,69 L24.531,69 L20.531,37 L22,37 L24.347,37 L75.653,37 L78,37 L79.469,37 L75.469,69 Z M68.458,96 L31.542,96 L28.737,73 L71.263,73 L68.458,96 Z M26.069,4 L73.931,4 L75.673,10 L24.327,10 L26.069,4 Z M85.002,10 L79.838,10 L77.491,1.917 C77.183,0.854 76.04,0 74.937,0 L25.063,0 C23.956,0 22.816,0.858 22.509,1.917 L20.162,10 L14.999,10 C13.896,10 13,10.899 13,12.008 L13,19.992 C13,21.098 13.895,22 14.999,22 L18.488,22 L19.829,33 L17.998,33 C16.897,33 16.111,33.888 16.248,34.983 L20.752,71.017 C20.889,72.108 21.894,73 22.997,73 L24.708,73 L27.758,98.014 C27.891,99.107 28.897,100 30.005,100 L69.995,100 C71.102,100 72.108,99.11 72.242,98.014 L75.293,73 L77.004,73 C78.112,73 79.111,72.112 79.248,71.017 L83.752,34.983 C83.889,33.892 83.105,33 82.002,33 L80.171,33 L81.512,22 L85.002,22 C86.104,22 87,21.101 87,19.992 L87,12.008 C87,10.902 86.105,10 85.002,10 L85.002,10 Z"/></g></g><text x="0" y="115" fill="#000000" font-size="5px" font-weight="bold" font-family="'Helvetica Neue', Helvetica, Arial-Unicode, Arial, Sans-serif">Created by Nikita Tcherednikov</text><text x="0" y="120" fill="#000000" font-size="5px" font-weight="bold" font-family="'Helvetica Neue', Helvetica, Arial-Unicode, Arial, Sans-serif">from the Noun Project</text></svg>