<svg xmlns="http://www.w3.org/2000/svg" xmlns:xlink="http://www.w3.org/1999/xlink" version="1.1" x="0px" y="0px" viewBox="0 0 100 125" style="enable-background:new 0 0 100 100;" xml:space="preserve"><path d="M72.9,13.6L56.4,30.2c-3.5,3.5-9.2,3.5-12.7,0L27.1,13.6c-3.5-3.5-9.2-3.5-12.7,0l0,0c-3.5,3.5-3.5,9.2,0,12.7l16.6,16.6  c3.5,3.5,3.5,9.2,0,12.7L14.3,72.2c-3.5,3.5-3.5,9.2,0,12.7l0,0c3.5,3.5,9.2,3.5,12.7,0l16.6-16.6c3.5-3.5,9.2-3.5,12.7,0L72.9,85  c3.5,3.5,9.2,3.5,12.7,0l0,0c3.5-3.5,3.5-9.2,0-12.7L69.1,55.7c-3.5-3.5-3.5-9.2,0-12.7l16.6-16.6c3.5-3.5,3.5-9.2,0-12.7l0,0  C82.2,10.1,76.5,10.1,72.9,13.6z"/><text x="0" y="115" fill="#000000" font-size="5px" font-weight="bold" font-family="'Helvetica Neue', Helvetica, Arial-Unicode, Arial, Sans-serif">Created by Viktor Vorobyev</text><text x="0" y="120" fill="#000000" font-size="5px" font-weight="bold" font-family="'Helvetica Neue', Helvetica, Arial-Unicode, Arial, Sans-serif">from the Noun Project</text></svg>