<svg xmlns="http://www.w3.org/2000/svg" xmlns:xlink="http://www.w3.org/1999/xlink" version="1.1" x="0px" y="0px" viewBox="0 0 255.946 295.48125" style="enable-background:new 0 0 255.946 236.385;" xml:space="preserve"><g><ellipse transform="matrix(0.2268 -0.9739 0.9739 0.2268 13.3481 68.1578)" cx="49.599" cy="25.672" rx="23.489" ry="23.489"/><ellipse transform="matrix(0.9739 -0.2268 0.2268 0.9739 -0.4455 47.4671)" cx="206.349" cy="25.672" rx="23.489" ry="23.489"/><path d="M243.669,73.153c-6.371-9.337-12.979-12.923-13.865-13.371c-0.444-0.226-0.9-0.4-1.361-0.537   c-0.651-0.288-1.348-0.502-2.087-0.61l-36.454-5.37c-0.871-0.485-1.844-0.819-2.893-0.951c-0.637-0.071-10.811-1.684-21.152-8.169   c-5.184-3.237-10.418-7.64-14.784-13.658c-4.364-6.031-7.926-13.689-9.675-23.838c-0.746-4.353-4.883-7.278-9.238-6.532   c-1.637,0.28-3.071,1.041-4.185,2.111c-1.114-1.07-2.549-1.83-4.187-2.111c-4.355-0.745-8.489,2.18-9.236,6.533   c-1.807,10.475-5.54,18.298-10.1,24.415c-6.826,9.145-15.755,14.514-23.096,17.577c-3.657,1.527-6.886,2.466-9.138,3.011   c-1.125,0.271-2.007,0.446-2.577,0.546c-0.284,0.051-0.491,0.083-0.61,0.101c-0.06,0.01-0.099,0.015-0.113,0.017v0   c-1.042,0.133-2.008,0.467-2.872,0.949l-36.451,5.369c-0.732,0.108-1.424,0.319-2.07,0.603c-0.467,0.137-0.93,0.314-1.379,0.543   c-0.887,0.448-7.497,4.034-13.866,13.372C5.891,82.471-0.027,97.449,0,119.666c0,9.649,1.092,20.679,3.687,33.276   c0.777,3.782,4.11,6.388,7.827,6.388c0.535,0,1.077-0.054,1.622-0.166c4.327-0.892,7.113-5.124,6.222-9.451   c-2.403-11.66-3.36-21.606-3.358-30.047c0.024-18.763,4.646-30.019,9.013-36.755l8.182,55.538c0.038,0.261,0.091,0.515,0.152,0.766   v83.905c0,7.131,5.781,12.909,12.91,12.909c7.131,0,12.91-5.778,12.91-12.909v-80.34l6.927-1.02l23.864,85.196   c1.923,6.867,9.049,10.872,15.915,8.948c6.864-1.922,10.871-9.046,8.948-15.913l-26.418-94.317l-8.758-59.456   c4.76-1.415,11.017-3.789,17.637-7.72c6.787-4.043,13.953-9.787,19.982-17.853c4.396-5.868,8.146-12.974,10.709-21.368   c2.563,8.393,6.311,15.498,10.708,21.366c9.064,12.112,20.598,18.942,29.744,22.764c2.896,1.206,5.564,2.119,7.878,2.808   l-8.759,59.458l-26.418,94.317c-1.923,6.867,2.084,13.991,8.948,15.913c6.866,1.924,13.992-2.081,15.915-8.948l23.864-85.196   l6.927,1.02v80.34c0,7.131,5.779,12.909,12.91,12.909c7.129,0,12.91-5.778,12.91-12.909v-83.905   c0.062-0.251,0.114-0.505,0.152-0.766l8.183-55.548c0.255,0.392,0.511,0.798,0.766,1.221c4.109,6.851,8.226,17.877,8.243,35.547   c0,8.438-0.96,18.386-3.358,30.048c-0.89,4.328,1.895,8.557,6.225,9.449c0.543,0.112,1.084,0.165,1.617,0.165   c3.72,0,7.054-2.605,7.832-6.391c2.589-12.596,3.684-23.62,3.686-33.271C255.973,97.449,250.054,82.471,243.669,73.153z"/></g><text x="0" y="251.385" fill="#000000" font-size="5px" font-weight="bold" font-family="'Helvetica Neue', Helvetica, Arial-Unicode, Arial, Sans-serif">Created by Gan Khoon Lay</text><text x="0" y="256.385" fill="#000000" font-size="5px" font-weight="bold" font-family="'Helvetica Neue', Helvetica, Arial-Unicode, Arial, Sans-serif">from the Noun Project</text></svg>