<svg xmlns="http://www.w3.org/2000/svg" xmlns:xlink="http://www.w3.org/1999/xlink" version="1.1" x="0px" y="0px" viewBox="0 0 100 125" enable-background="new 0 0 100 100" xml:space="preserve"><path d="M65.75,26c2.126,0,3.85-1.724,3.85-3.85v-6.3c0-2.126-1.724-3.85-3.85-3.85s-3.85,1.724-3.85,3.85v6.3  C61.9,24.276,63.624,26,65.75,26z M34.25,26c2.126,0,3.85-1.724,3.85-3.85v-6.3c0-2.126-1.724-3.85-3.85-3.85s-3.85,1.724-3.85,3.85  v6.3C30.4,24.276,32.124,26,34.25,26z M81.5,18.3h-9.8v4.55c0,3.286-2.665,5.95-5.95,5.95s-5.949-2.665-5.949-5.95V18.3H40.2v4.55  c0,3.286-2.665,5.95-5.95,5.95s-5.95-2.665-5.95-5.95V18.3h-9.8c-1.934,0-3.5,1.566-3.5,3.5v14.7h70V21.8  C85,19.867,83.434,18.3,81.5,18.3z M15,53.9h15.4V39.3H15V53.9z M33.2,53.9h15.4V39.3H33.2V53.9z M51.4,53.9h15.4V39.3H51.4V53.9z   M69.6,53.9H85V39.3H69.6V53.9z M15,71.301h15.4V56.7H15V71.301z M33.2,71.301h15.4V56.7H33.2V71.301z M51.4,71.301h15.4V56.7H51.4  V71.301z M69.6,71.301H85V56.7H69.6V71.301z M33.2,88h15.4V74.1H33.2V88z M51.4,88h15.4V74.1H51.4V88z M15,85.9  c0,1.16,0.94,2.1,2.1,2.1h13.3V74.1H15V85.9z M69.6,88H82.9c1.16,0,2.1-0.939,2.1-2.1V74.1H69.6V88z"/><text x="0" y="115" fill="#000000" font-size="5px" font-weight="bold" font-family="'Helvetica Neue', Helvetica, Arial-Unicode, Arial, Sans-serif">Created by Kidiladon</text><text x="0" y="120" fill="#000000" font-size="5px" font-weight="bold" font-family="'Helvetica Neue', Helvetica, Arial-Unicode, Arial, Sans-serif">from the Noun Project</text></svg>