<?xml version="1.0" encoding="utf-8"?>
<!-- Generator: Adobe Illustrator 21.1.0, SVG Export Plug-In . SVG Version: 6.00 Build 0)  -->
<svg version="1.1" id="Layer_1" xmlns="http://www.w3.org/2000/svg" xmlns:xlink="http://www.w3.org/1999/xlink" x="0px" y="0px"
	 viewBox="0 0 32 32" style="enable-background:new 0 0 32 32;" xml:space="preserve">
<style type="text/css">
	.st0{fill:#FDDD0D;}
	.st1{fill:#221F1F;}
	.st2{fill:#EB76AC;}
	.st3{fill:#FFFFFF;}
</style>
<g>
	<path class="st0" d="M26.3,23h-3c-3.1,0-5.6-2.5-5.6-5.6v-3c0-3.1,2.5-5.6,5.6-5.6h3c3.1,0,5.6,2.5,5.6,5.6v3
		C31.9,20.4,29.4,23,26.3,23z M23.2,11.8c-1.4,0-2.5,1.1-2.5,2.5v3c0,1.4,1.1,2.5,2.5,2.5h3c1.4,0,2.5-1.1,2.5-2.5v-3
		c0-1.4-1.1-2.5-2.5-2.5H23.2z"/>
</g>
<path class="st0" d="M21.5,28.6H4c-2.1,0-3.9-1.7-3.9-3.9V7.3c0-2.1,1.7-3.9,3.9-3.9h17.5c2.1,0,3.9,1.7,3.9,3.9v17.5
	C25.4,26.9,23.6,28.6,21.5,28.6z"/>
<g>
	<ellipse class="st1" cx="6.6" cy="11.5" rx="1.2" ry="1.6"/>
	<ellipse class="st1" cx="17.8" cy="11.5" rx="1.2" ry="1.6"/>
	<g>
		<path class="st2" d="M12.7,24c2.7,0,5-1.3,6.5-3.3h-13C7.7,22.7,10,24,12.7,24z"/>
		<path class="st3" d="M19.2,20.7c0.4-0.6,0.8-1.3,1.1-2H5.1c0.3,0.7,0.6,1.4,1.1,2H19.2z"/>
	</g>
</g>
</svg>
