<svg xmlns="http://www.w3.org/2000/svg" xmlns:xlink="http://www.w3.org/1999/xlink" xmlns:a="http://ns.adobe.com/AdobeSVGViewerExtensions/3.0/" version="1.1" x="0px" y="0px" viewBox="0 0 64 80" enable-background="new 0 0 64 64" xml:space="preserve"><g><defs><rect id="b" width="64" height="64"/></defs><clipPath id="a"><use xlink:href="#b" overflow="visible"/></clipPath><path clip-path="url(#a)" d="M52,8h-3.22L46.97,0.757C46.858,0.313,46.459,0,46,0H18c-0.459,0-0.859,0.313-0.97,0.757   L15.219,8H12c-1.654,0-3,1.346-3,3v2c0,1.326,0.871,2.441,2.066,2.836l1.018,12.247c0.046,0.55,0.53,0.962,1.08,0.914   c0.55-0.046,0.959-0.529,0.914-1.08L13.086,16H16v17h-4.721L9,39.838V51h16V39.838L22.721,33H18V16h32.913l-1,12H40.98   c-2.7-2.045-5.435-3-8.578-3c-2.602,0-4.777,0.641-7.273,2.143c-0.473,0.285-0.626,0.899-0.341,1.373   c0.286,0.473,0.9,0.627,1.373,0.341C28.323,27.555,30.189,27,32.402,27c2.779,0,5.2,0.885,7.619,2.786   C40.198,29.925,40.416,30,40.64,30h9.106L48.08,50h-7.44c-0.224,0-0.441,0.075-0.618,0.214C37.702,52.036,34.928,53,32,53   c-0.631,0-1.253-0.047-1.847-0.139c-0.541-0.084-1.056,0.29-1.141,0.835c-0.084,0.546,0.29,1.057,0.835,1.142   C30.542,54.945,31.267,55,32,55c3.265,0,6.361-1.036,8.979-3h6.934L47.08,62H16.92l-0.504-6.083   c-0.046-0.549-0.526-0.978-1.079-0.913c-0.55,0.045-0.959,0.528-0.914,1.079l0.58,7C15.046,63.601,15.479,64,16,64h32   c0.521,0,0.953-0.398,0.996-0.917l3.938-47.247C54.129,15.441,55,14.327,55,13v-2C55,9.346,53.654,8,52,8z M21.279,35L23,40.162V49   H11v-8.838L12.721,35H21.279z M53,13c0,0.551-0.448,1-1,1H12c-0.551,0-1-0.449-1-1v-2c0-0.551,0.449-1,1-1h27c0.553,0,1-0.448,1-1   s-0.447-1-1-1H17.281l1.5-6h26.438l1.5,6H44c-0.553,0-1,0.448-1,1s0.447,1,1,1h8c0.552,0,1,0.449,1,1V13z M36.048,46.939   c-0.481,0.271-0.652,0.881-0.382,1.362c0.184,0.326,0.523,0.51,0.873,0.51c0.166,0,0.334-0.041,0.489-0.128   c4.806-2.703,6.517-8.813,3.814-13.619c-2.703-4.805-8.811-6.516-13.618-3.814c-0.481,0.271-0.652,0.88-0.381,1.362   c0.271,0.48,0.879,0.653,1.362,0.381c3.844-2.162,8.731-0.794,10.894,3.051C41.262,39.89,39.893,44.777,36.048,46.939z"/></g><text x="0" y="79" fill="#000000" font-size="5px" font-weight="bold" font-family="'Helvetica Neue', Helvetica, Arial-Unicode, Arial, Sans-serif">Created by Stefan Mihaylov</text><text x="0" y="84" fill="#000000" font-size="5px" font-weight="bold" font-family="'Helvetica Neue', Helvetica, Arial-Unicode, Arial, Sans-serif">from the Noun Project</text></svg>