<svg xmlns="http://www.w3.org/2000/svg" data-name="Layer 1" viewBox="0 0 100 125" x="0px" y="0px"><title>Artboard 13</title><path d="M37.93,18.51a2.56,2.56,0,0,1-.09-.33,2.47,2.47,0,0,1,0-.77A2.36,2.36,0,0,1,37.9,17a2.39,2.39,0,0,1,.17-.41,2.54,2.54,0,0,1,.25-.38l9-12a3.23,3.23,0,0,1,.55-.57,3.45,3.45,0,0,1,.67-.43A3.61,3.61,0,0,1,49.33,3a3.66,3.66,0,0,1,.82-.09A3.7,3.7,0,0,1,51,3a3.62,3.62,0,0,1,.77.27,3.45,3.45,0,0,1,.67.43,3.23,3.23,0,0,1,.55.57l9,12a2.55,2.55,0,0,1,.41.82,2.44,2.44,0,0,1,.09.88,2.59,2.59,0,0,1-.23.87,3,3,0,0,1-.55.8,3.11,3.11,0,0,1-.57.46,3.6,3.6,0,0,1-.66.33,4.08,4.08,0,0,1-.73.2,4.34,4.34,0,0,1-.76.07H55.44l-.29,10.74a1.87,1.87,0,0,1-.24.85,2.31,2.31,0,0,1-.59.69,2.88,2.88,0,0,1-.86.46,3.26,3.26,0,0,1-1,.17H47.89a3.25,3.25,0,0,1-1-.17,2.88,2.88,0,0,1-.86-.46,2.31,2.31,0,0,1-.59-.69,1.86,1.86,0,0,1-.24-.85l-.29-10.74h-3.7a3.77,3.77,0,0,1-.88-.1,3.62,3.62,0,0,1-.81-.3,3.37,3.37,0,0,1-.7-.47,3.09,3.09,0,0,1-.55-.63,2.77,2.77,0,0,1-.17-.3A2.71,2.71,0,0,1,37.93,18.51Zm2.7,62.63H59.38a5,5,0,0,0,0-10H40.62a5,5,0,1,0,0,10Zm0-16H59.38a5,5,0,0,0,0-10H40.62a5,5,0,1,0,0,10Zm18.75-26H40.62a5,5,0,1,0,0,10H59.38a5,5,0,0,0,0-10ZM6,81.14H24.75a5,5,0,0,0,0-10H6a5,5,0,1,0,0,10Zm34.62,16H59.38a5,5,0,0,0,0-10H40.62a5,5,0,1,0,0,10ZM6,97.14H24.75a5,5,0,1,0,0-10H6a5,5,0,1,0,0,10Zm88-10H75.25a5,5,0,1,0,0,10H94a5,5,0,1,0,0-10ZM3.3,33.51a2.67,2.67,0,0,0,.13.32,2.77,2.77,0,0,0,.17.3,3.1,3.1,0,0,0,.55.63,3.37,3.37,0,0,0,.7.47,3.62,3.62,0,0,0,.81.3,3.77,3.77,0,0,0,.88.1h3.7l.29,10.74a1.87,1.87,0,0,0,.24.85,2.31,2.31,0,0,0,.59.69,2.88,2.88,0,0,0,.86.46,3.26,3.26,0,0,0,1,.17h4.52a3.26,3.26,0,0,0,1-.17,2.88,2.88,0,0,0,.86-.46,2.31,2.31,0,0,0,.59-.69,1.87,1.87,0,0,0,.24-.85l.29-10.74h3.56a4.34,4.34,0,0,0,.76-.07,4.08,4.08,0,0,0,.73-.2,3.6,3.6,0,0,0,.66-.33,3.11,3.11,0,0,0,.57-.46,3,3,0,0,0,.55-.8,2.6,2.6,0,0,0,.23-.87,2.45,2.45,0,0,0-.09-.88,2.55,2.55,0,0,0-.41-.82l-9-12a3.24,3.24,0,0,0-.55-.57,3.45,3.45,0,0,0-.67-.43,3.61,3.61,0,0,0-.77-.27,3.7,3.7,0,0,0-.82-.09,3.65,3.65,0,0,0-.82.09,3.6,3.6,0,0,0-.76.27,3.45,3.45,0,0,0-.67.43,3.24,3.24,0,0,0-.55.57l-9,12a2.56,2.56,0,0,0-.25.38,2.37,2.37,0,0,0-.26.83,2.45,2.45,0,0,0,0,.44,2.51,2.51,0,0,0,0,.33A2.56,2.56,0,0,0,3.3,33.51ZM6,65.14H24.75a5,5,0,0,0,0-10H6a5,5,0,1,0,0,10ZM87.58,34.22a3.23,3.23,0,0,0-.55-.57,3.45,3.45,0,0,0-.67-.43A3.61,3.61,0,0,0,85.6,33a3.7,3.7,0,0,0-.82-.09A3.66,3.66,0,0,0,84,33a3.6,3.6,0,0,0-.76.27,3.44,3.44,0,0,0-.67.43,3.22,3.22,0,0,0-.55.57l-9,12a2.55,2.55,0,0,0-.25.38,2.4,2.4,0,0,0-.17.41,2.36,2.36,0,0,0-.09.42,2.47,2.47,0,0,0,0,.77,2.56,2.56,0,0,0,.09.33,2.74,2.74,0,0,0,.3.62,3.08,3.08,0,0,0,.55.63,3.37,3.37,0,0,0,.7.47,3.62,3.62,0,0,0,.81.3,3.77,3.77,0,0,0,.88.1h3.7l.29,10.74a1.87,1.87,0,0,0,.24.85,2.31,2.31,0,0,0,.59.69,2.88,2.88,0,0,0,.86.46,3.25,3.25,0,0,0,1,.17H87a3.25,3.25,0,0,0,1-.17,2.88,2.88,0,0,0,.86-.46,2.31,2.31,0,0,0,.59-.69,1.87,1.87,0,0,0,.24-.85l.29-10.74h3.56a4.34,4.34,0,0,0,.76-.07,4.08,4.08,0,0,0,.73-.2,3.6,3.6,0,0,0,.66-.33,3.11,3.11,0,0,0,.57-.46,3,3,0,0,0,.55-.8,2.59,2.59,0,0,0,.23-.87A2.45,2.45,0,0,0,97,47a2.55,2.55,0,0,0-.41-.82ZM75.25,71.14a5,5,0,1,0,0,10H94a5,5,0,0,0,0-10Z"/><text x="0" y="115" fill="#000000" font-size="5px" font-weight="bold" font-family="'Helvetica Neue', Helvetica, Arial-Unicode, Arial, Sans-serif">Created by Gregor Cresnar</text><text x="0" y="120" fill="#000000" font-size="5px" font-weight="bold" font-family="'Helvetica Neue', Helvetica, Arial-Unicode, Arial, Sans-serif">from the Noun Project</text></svg>