<svg xmlns="http://www.w3.org/2000/svg" xmlns:xlink="http://www.w3.org/1999/xlink" version="1.1" x="0px" y="0px" viewBox="0 0 100 125" style="enable-background:new 0 0 100 100;" xml:space="preserve"><g><path d="M70,28.3h-3.5v-6.8c0-0.8-0.7-1.5-1.5-1.5H35c-0.8,0-1.5,0.7-1.5,1.5v6.8H30c-0.8,0-1.5,0.7-1.5,1.5s0.7,1.5,1.5,1.5h5h30   h5c0.8,0,1.5-0.7,1.5-1.5S70.9,28.3,70,28.3z M63.5,28.3h-27V23h27V28.3z"/><path d="M64.2,44.5H45.6c-0.8,0-1.5,0.7-1.5,1.5v18c0,0.8,0.7,1.5,1.5,1.5h16.7l-1,11.5H38.6l-3.8-43.7h-3l3.9,45.3   c0.1,0.8,0.7,1.4,1.5,1.4h25.5c0.8,0,1.4-0.6,1.5-1.4l3.9-45.3h-3L64.2,44.5z M62.6,62.5H47.1v-15h16.8L62.6,62.5z"/></g><text x="0" y="115" fill="#000000" font-size="5px" font-weight="bold" font-family="'Helvetica Neue', Helvetica, Arial-Unicode, Arial, Sans-serif">Created by Mello</text><text x="0" y="120" fill="#000000" font-size="5px" font-weight="bold" font-family="'Helvetica Neue', Helvetica, Arial-Unicode, Arial, Sans-serif">from the Noun Project</text></svg>