<svg xmlns="http://www.w3.org/2000/svg" data-name="Layer 1" viewBox="0 0 69.74 84.1625" x="0px" y="0px"><defs><style>.cls-1{fill:none;stroke:#000;stroke-miterlimit:10;}</style></defs><title>Artboard 50</title><circle class="cls-1" cx="35.53" cy="32" r="19.75"/><path class="cls-1" d="M35.53,49.75A17.75,17.75,0,1,1,53.28,32,17.77,17.77,0,0,1,35.53,49.75Z"/><path class="cls-1" d="M35.53,47.75a15.68,15.68,0,0,1-5.44-1"/><path class="cls-1" d="M49.2,39.82a15.78,15.78,0,0,1-11.6,7.8"/><path class="cls-1" d="M35.53,44.58A12.58,12.58,0,1,1,48.11,32,12.6,12.6,0,0,1,35.53,44.58Z"/><path class="cls-1" d="M41.49,37.87a8,8,0,1,1,0-11.35l-2.67,2.67a4.25,4.25,0,1,0,0,6Z"/><line class="cls-1" x1="35.43" y1="40.22" x2="35.43" y2="43.27"/><line class="cls-1" x1="35.43" y1="20.82" x2="35.43" y2="23.87"/><text x="0" y="82.33" fill="#000000" font-size="5px" font-weight="bold" font-family="'Helvetica Neue', Helvetica, Arial-Unicode, Arial, Sans-serif">Created by Ashwani Parik</text><text x="0" y="87.33" fill="#000000" font-size="5px" font-weight="bold" font-family="'Helvetica Neue', Helvetica, Arial-Unicode, Arial, Sans-serif">from the Noun Project</text></svg>