<svg fill="white" xmlns="http://www.w3.org/2000/svg" xmlns:xlink="http://www.w3.org/1999/xlink" version="1.1" x="0px" y="0px" viewBox="1162.369 2787.108 84.688 118.75125" enable-background="new 1162.369 2787.108 84.688 95.001" xml:space="preserve"><circle cx="1204.714" cy="2796.126" r="9.018"/><circle cx="1171.385" cy="2815.367" r="9.017"/><circle cx="1171.385" cy="2853.85" r="9.017"/><circle cx="1204.714" cy="2873.091" r="9.018"/><circle cx="1238.04" cy="2853.85" r="9.017"/><circle cx="1238.04" cy="2815.368" r="9.016"/><path d="M1202.38,2804.835c-8.71-2.334-19.951,4.156-22.284,12.866l-6.376-11.044c8.709,2.334,19.95-4.156,22.284-12.865  L1202.38,2804.835z"/><path d="M1213.424,2793.792c2.333,8.709,13.574,15.199,22.283,12.866l-6.376,11.043c-2.333-8.709-13.574-15.2-22.284-12.866  L1213.424,2793.792z"/><path d="M1177.761,2821.743c-6.376,6.376-6.376,19.354,0,25.729h-12.752c6.376-6.376,6.376-19.354,0-25.729H1177.761z"/><path d="M1180.095,2851.517c2.334,8.709,13.574,15.199,22.283,12.863l-6.375,11.045c-2.334-8.709-13.574-15.199-22.284-12.865  L1180.095,2851.517z"/><path d="M1207.047,2864.38c8.71,2.334,19.949-4.154,22.283-12.864l6.376,11.044c-8.71-2.334-19.949,4.154-22.283,12.865  L1207.047,2864.38z"/><path d="M1231.664,2847.474c6.376-6.375,6.376-19.354,0.001-25.729h12.751c-6.376,6.376-6.376,19.354,0.001,25.729H1231.664z"/></svg>