<svg xmlns="http://www.w3.org/2000/svg" xmlns:xlink="http://www.w3.org/1999/xlink" xmlns:a="http://ns.adobe.com/AdobeSVGViewerExtensions/3.0/" version="1.1" x="0px" y="0px" viewBox="0 0 64 80" enable-background="new 0 0 64 64" xml:space="preserve"><g><defs><rect id="b" width="64" height="64"/></defs><clipPath id="a"><use xlink:href="#b" overflow="visible"/></clipPath><path clip-path="url(#a)" d="M52,8h-3.22L46.97,0.757C46.858,0.313,46.459,0,46,0H18c-0.459,0-0.859,0.313-0.97,0.757   L15.219,8H12c-1.654,0-3,1.346-3,3v2c0,1.326,0.871,2.441,2.066,2.836l3.937,47.247C15.047,63.602,15.48,64,16,64h32   c0.521,0,0.953-0.398,0.996-0.917l3.938-47.247C54.129,15.441,55,14.327,55,13v-2C55,9.346,53.654,8,52,8z M47.08,62H16.92   l-0.417-5h30.994L47.08,62z M50.163,25H43c-0.553,0-1,0.448-1,1s0.447,1,1,1h6.996l-2.333,28H16.336l-2.333-28H21   c0.552,0,1-0.448,1-1s-0.448-1-1-1h-7.163l-0.75-9h37.826L50.163,25z M53,13c0,0.551-0.448,1-1,1H12c-0.551,0-1-0.449-1-1v-2   c0-0.551,0.449-1,1-1h27c0.553,0,1-0.448,1-1s-0.447-1-1-1H17.281l1.5-6h26.438l1.5,6H44c-0.553,0-1,0.448-1,1s0.447,1,1,1h8   c0.552,0,1,0.449,1,1V13z M33.768,51.07c2.13,0,3.771-0.882,4.596-1.707s1.707-2.466,1.707-4.596c0-1.641-0.541-4.138-3.122-6.717   c-2.58-2.58-5.078-3.121-6.718-3.121c-2.129,0-3.77,0.881-4.595,1.706c-1.615,1.615-3.394,6.506,1.415,11.313   C29.63,50.529,32.127,51.07,33.768,51.07z M27.049,38.05c0.517-0.517,1.66-1.12,3.181-1.12c1.811,0,3.645,0.876,5.304,2.535   c1.659,1.658,2.536,3.492,2.536,5.303c0,1.521-0.604,2.664-1.121,3.182s-1.661,1.121-3.182,1.121c-1.811,0-3.645-0.876-5.304-2.535   C24.724,42.796,25.896,39.204,27.049,38.05z M31.058,43.336c0.055,0.154,1.387,3.789,4.342,4.19   c0.046,0.006,0.091,0.009,0.136,0.009c0.493,0,0.922-0.364,0.99-0.865c0.074-0.548-0.31-1.052-0.856-1.126   c-1.451-0.196-2.462-2.148-2.71-2.825c-0.035-0.118-0.881-2.9-4.127-4.185c-0.515-0.205-1.095,0.049-1.297,0.562   c-0.203,0.514,0.048,1.095,0.562,1.298C30.404,41.307,31.017,43.207,31.058,43.336z M25.132,32.496   C25.316,32.819,25.654,33,26.001,33c0.168,0,0.339-0.042,0.495-0.132c0.479-0.274,0.646-0.885,0.372-1.364   c-0.819-1.434-0.604-3.25-0.095-3.87c1.131-1.377,1.629-3.906,0.051-6.201c-0.313-0.455-0.936-0.57-1.391-0.258   c-0.455,0.313-0.57,0.936-0.258,1.391c1.143,1.662,0.533,3.212,0.051,3.799C24.207,27.609,23.88,30.307,25.132,32.496z    M37.132,32.496C37.316,32.819,37.653,33,38.001,33c0.168,0,0.339-0.042,0.495-0.132c0.479-0.274,0.646-0.885,0.372-1.364   c-0.819-1.434-0.604-3.25-0.095-3.87c1.13-1.377,1.629-3.906,0.051-6.201c-0.313-0.455-0.936-0.57-1.391-0.258   c-0.455,0.313-0.57,0.936-0.258,1.391c1.143,1.662,0.533,3.212,0.051,3.799C36.207,27.609,35.881,30.307,37.132,32.496z    M31.132,32.496C31.316,32.819,31.654,33,32.001,33c0.168,0,0.339-0.042,0.495-0.132c0.479-0.274,0.646-0.885,0.372-1.364   c-0.819-1.434-0.604-3.25-0.095-3.87c1.13-1.377,1.629-3.906,0.051-6.201c-0.313-0.455-0.936-0.57-1.391-0.258   c-0.455,0.313-0.57,0.936-0.258,1.391c1.143,1.662,0.533,3.212,0.051,3.799C30.207,27.609,29.88,30.307,31.132,32.496z"/></g><text x="0" y="79" fill="#000000" font-size="5px" font-weight="bold" font-family="'Helvetica Neue', Helvetica, Arial-Unicode, Arial, Sans-serif">Created by Stefan Mihaylov</text><text x="0" y="84" fill="#000000" font-size="5px" font-weight="bold" font-family="'Helvetica Neue', Helvetica, Arial-Unicode, Arial, Sans-serif">from the Noun Project</text></svg>