<svg xmlns="http://www.w3.org/2000/svg" data-name="Layer 1" viewBox="0 0 100 125" x="0px" y="0px"><title>Artboard 45</title><path d="M74,28v8a2,2,0,0,1-2,2H28a2,2,0,0,1-2-2V28a2,2,0,0,1,2-2h6V20a2,2,0,0,1,2-2H64a2,2,0,0,1,2,2v6h6A2,2,0,0,1,74,28ZM58.81,74H41.19l-.75-7H51.56l1.71-16H38.72L38,44h-8l3.69,34.43a4,4,0,0,0,4,3.57H62.41a4,4,0,0,0,4-3.57L70.07,44H62Z"/><text x="0" y="115" fill="#000000" font-size="5px" font-weight="bold" font-family="'Helvetica Neue', Helvetica, Arial-Unicode, Arial, Sans-serif">Created by Gregor Cresnar</text><text x="0" y="120" fill="#000000" font-size="5px" font-weight="bold" font-family="'Helvetica Neue', Helvetica, Arial-Unicode, Arial, Sans-serif">from the Noun Project</text></svg>