<svg xmlns="http://www.w3.org/2000/svg" xmlns:xlink="http://www.w3.org/1999/xlink" version="1.1" x="0px" y="0px" viewBox="0 0 24 30" enable-background="new 0 0 24 24" xml:space="preserve"><g><g><path fill="#000000" d="M18.127,6.768L18.127,6.768c-0.557,0-1.104-0.152-1.582-0.439c-0.704-0.425-1.2-1.097-1.397-1.894    c-0.198-0.796-0.073-1.622,0.352-2.325c0.562-0.931,1.547-1.486,2.635-1.486c0.557,0,1.104,0.152,1.582,0.439    c1.449,0.875,1.919,2.768,1.048,4.219C20.21,6.199,19.199,6.768,18.127,6.768z M18.134,1.624c-0.734,0-1.399,0.375-1.779,1.004    c-0.286,0.474-0.37,1.03-0.237,1.567c0.134,0.537,0.469,0.99,0.943,1.276c0.322,0.194,0.691,0.297,1.066,0.297l0,0    c0.735,0,1.401-0.374,1.78-1.003c0.587-0.979,0.271-2.255-0.708-2.846C18.877,1.726,18.509,1.624,18.134,1.624z"/><path fill="#000000" d="M6.668,6.768L6.668,6.768c-1.072,0-2.082-0.569-2.635-1.485C3.16,3.832,3.628,1.939,5.076,1.064    c0.48-0.288,1.028-0.44,1.584-0.44c1.073,0,2.083,0.57,2.635,1.487c0.424,0.7,0.549,1.525,0.353,2.321    C9.451,5.229,8.955,5.903,8.251,6.328C7.772,6.617,7.225,6.768,6.668,6.768z M6.66,1.624c-0.375,0-0.744,0.103-1.068,0.297    C4.616,2.51,4.301,3.788,4.89,4.766c0.571,0.948,1.892,1.28,2.845,0.705c0.475-0.286,0.81-0.741,0.942-1.279    C8.81,3.656,8.725,3.1,8.439,2.627C8.061,1.999,7.396,1.624,6.66,1.624z"/><path fill="#000000" d="M8.643,23.376H7.115c-0.266,0-0.485-0.208-0.499-0.474L6.41,19.06l-0.99,3.889    c-0.057,0.222-0.256,0.377-0.484,0.377h-1.38c-0.137,0-0.268-0.056-0.361-0.155C3.1,23.072,3.05,22.939,3.057,22.802l0.462-9.834    l-1.061,1.193v0.349h0.143c0.276,0,0.5,0.224,0.5,0.5v5.356c0,0.276-0.224,0.5-0.5,0.5H0.527c-0.276,0-0.5-0.224-0.5-0.5V15.01    c0-0.276,0.224-0.5,0.5-0.5h0.15v-0.257l-0.153-0.065c-0.126-0.054-0.224-0.156-0.271-0.283c-0.048-0.128-0.042-0.27,0.017-0.393    l3.079-6.436C3.432,6.903,3.608,6.792,3.8,6.792H9.11c0.169,0,0.327,0.086,0.419,0.228l2.873,4.423l2.948-4.428    c0.093-0.139,0.249-0.223,0.416-0.223h5.915c0.213,0,0.401,0.134,0.472,0.335l1.791,5.111c0.034,0.098,0.037,0.204,0.009,0.304    l-0.782,2.7l-0.034,0.426h0.109c0.276,0,0.5,0.224,0.5,0.5v5.355c0,0.276-0.224,0.5-0.5,0.5h-2.073c-0.276,0-0.5-0.224-0.5-0.5    v-5.355c0-0.276,0.224-0.5,0.5-0.5h0.643c0.117,0,0.225,0.04,0.31,0.107l0.054-0.663c0.002-0.033,0.009-0.066,0.018-0.099    l0.752-2.596l-1.621-4.626h-5.293l-3.221,4.838c-0.093,0.139-0.249,0.223-0.416,0.223c-0.001,0-0.002,0-0.003,0    c-0.168-0.001-0.324-0.087-0.416-0.228l-3.14-4.833H4.115l-2.719,5.682c0.078,0.037,0.143,0.094,0.19,0.162l2.124-2.39    c0.142-0.159,0.368-0.212,0.563-0.131c0.196,0.08,0.321,0.274,0.311,0.486L4.08,22.326h0.467l1.702-6.688    c0.061-0.239,0.276-0.389,0.533-0.375c0.246,0.024,0.438,0.225,0.45,0.472l0.356,6.643h0.595L9.127,11.27    c0.024-0.275,0.294-0.47,0.54-0.456c0.275,0.023,0.479,0.266,0.456,0.54L9.141,22.918C9.119,23.177,8.902,23.376,8.643,23.376z     M21.673,21.024h1.073v-4.355h-0.15c-0.14,0-0.272-0.059-0.367-0.161c-0.008-0.008-0.016-0.017-0.022-0.026    c-0.092,0.114-0.232,0.188-0.391,0.188h-0.143V21.024z M1.027,19.867h1.073V15.51H1.958c-0.158,0-0.299-0.073-0.39-0.188    c-0.092,0.114-0.232,0.188-0.391,0.188h-0.15V19.867z"/><path fill="#000000" d="M16.717,23.376h-1.529c-0.136,0-0.267-0.056-0.36-0.153c-0.095-0.099-0.145-0.231-0.14-0.367l0.473-11.601    c0.012-0.275,0.237-0.465,0.521-0.479c0.275,0.012,0.49,0.244,0.479,0.521l-0.452,11.08h0.612l1.584-6.73    c0.056-0.24,0.267-0.404,0.526-0.384c0.246,0.02,0.441,0.216,0.459,0.462l0.473,6.602h0.466l0.797-7.273l-0.003-4.021    c0-0.276,0.224-0.5,0.5-0.5s0.5,0.224,0.5,0.5v4.075l-0.849,7.773c-0.027,0.253-0.242,0.445-0.497,0.445h-1.38    c-0.263,0-0.48-0.203-0.499-0.464l-0.271-3.794l-0.923,3.923C17.151,23.217,16.949,23.376,16.717,23.376z"/></g><path fill="#000000" d="M2.172,15.51H1.047c-0.276,0-0.5-0.224-0.5-0.5s0.224-0.5,0.5-0.5h1.125c0.276,0,0.5,0.224,0.5,0.5   S2.448,15.51,2.172,15.51z"/><path fill="#000000" d="M22.922,16.668h-1.281c-0.276,0-0.5-0.224-0.5-0.5s0.224-0.5,0.5-0.5h1.281c0.276,0,0.5,0.224,0.5,0.5   S23.198,16.668,22.922,16.668z"/><path fill="#000000" d="M1.958,14.471c-0.01,0-0.021,0-0.03-0.001l-0.78-0.048c-0.276-0.017-0.485-0.254-0.469-0.529   c0.018-0.275,0.252-0.504,0.529-0.469l0.78,0.048c0.276,0.017,0.485,0.254,0.469,0.529C2.441,14.267,2.221,14.471,1.958,14.471z"/><path fill="#000000" d="M22.766,16.079h-0.344c-0.276,0-0.5-0.224-0.5-0.5s0.224-0.5,0.5-0.5h0.344c0.276,0,0.5,0.224,0.5,0.5   S23.042,16.079,22.766,16.079z"/></g><text x="0" y="39" fill="#000000" font-size="5px" font-weight="bold" font-family="'Helvetica Neue', Helvetica, Arial-Unicode, Arial, Sans-serif">Created by Atif Arshad</text><text x="0" y="44" fill="#000000" font-size="5px" font-weight="bold" font-family="'Helvetica Neue', Helvetica, Arial-Unicode, Arial, Sans-serif">from the Noun Project</text></svg>