<svg xmlns="http://www.w3.org/2000/svg" xmlns:xlink="http://www.w3.org/1999/xlink" version="1.1" x="0px" y="0px" viewBox="1157.245 2759.792 94.999 117.28999999999999" enable-background="new 1157.245 2759.792 94.999 93.832" xml:space="preserve"><circle fill="#000000" cx="1204.744" cy="2768.92" r="9.129"/><circle fill="#000000" cx="1179.699" cy="2778.034" r="9.129"/><circle fill="#000000" cx="1166.373" cy="2801.117" r="9.128"/><circle fill="#000000" cx="1171.001" cy="2827.363" r="9.128"/><circle fill="#000000" cx="1191.417" cy="2844.496" r="9.128"/><circle fill="#000000" cx="1218.069" cy="2844.496" r="9.128"/><path fill="#000000" d="M1233.922,2835.268c-4.367-2.518-5.862-8.104-3.342-12.469c2.521-4.367,8.104-5.863,12.47-3.34  c4.367,2.518,5.862,8.102,3.342,12.469C1243.87,2836.293,1238.29,2837.79,1233.922,2835.268z"/><path fill="#000000" d="M1244.699,2810.106c-4.964,0.877-9.698-2.438-10.574-7.404c-0.875-4.965,2.438-9.699,7.405-10.574  c4.965-0.877,9.697,2.438,10.574,7.404C1252.979,2804.497,1249.665,2809.229,1244.699,2810.106z"/><circle fill="#000000" cx="1229.79" cy="2778.037" r="9.128"/><path fill="#000000" d="M1200.885,2777.194c-6.227-2.904-10.009-1.527-12.912,4.699l-4.416-12.133  c6.228,2.904,10.01,1.527,12.913-4.699L1200.885,2777.194z"/><path fill="#000000" d="M1213.017,2765.061c2.904,6.229,6.688,7.605,12.914,4.701l-4.415,12.131  c-2.903-6.229-6.687-7.604-12.914-4.699L1213.017,2765.061z"/><path fill="#000000" d="M1182.062,2786.852c-6.638,1.779-8.649,5.266-6.871,11.9l-11.181-6.453  c6.638-1.779,8.649-5.266,6.871-11.902L1182.062,2786.852z"/><path fill="#000000" d="M1173.85,2806.352c-3.94,5.629-3.243,9.594,2.387,13.533l-12.714,2.242  c3.941-5.629,3.242-9.594-2.387-13.535L1173.85,2806.352z"/><path fill="#000000" d="M1180.094,2826.567c0.601,6.846,3.684,9.434,10.528,8.834l-8.298,9.889c-0.6-6.846-3.684-9.432-10.528-8.832  L1180.094,2826.567z"/><path fill="#000000" d="M1197.872,2838.042c4.859,4.857,8.884,4.857,13.743,0l-0.001,12.908c-4.858-4.859-8.885-4.859-13.742,0  V2838.042L1197.872,2838.042z"/><path fill="#000000" d="M1218.864,2835.403c6.844,0.598,9.928-1.988,10.525-8.834l8.299,9.891c-6.845-0.6-9.928,1.988-10.525,8.832  L1218.864,2835.403z"/><path fill="#000000" d="M1233.249,2819.885c5.628-3.939,6.326-7.904,2.387-13.531l12.716,2.242  c-5.628,3.939-6.327,7.904-2.387,13.531L1233.249,2819.885z"/><path fill="#000000" d="M1234.296,2798.754c1.779-6.639-0.232-10.123-6.869-11.902l11.181-6.453  c-1.777,6.637,0.233,10.121,6.87,11.898L1234.296,2798.754z"/><text x="1157.245" y="2868.624" fill="#000000" font-size="5px" font-weight="bold" font-family="'Helvetica Neue', Helvetica, Arial-Unicode, Arial, Sans-serif">Created by Debbie Minchington</text><text x="1157.245" y="2873.624" fill="#000000" font-size="5px" font-weight="bold" font-family="'Helvetica Neue', Helvetica, Arial-Unicode, Arial, Sans-serif">from the Noun Project</text></svg>