<svg xmlns:dc="http://purl.org/dc/elements/1.1/" xmlns:cc="http://creativecommons.org/ns#" xmlns:rdf="http://www.w3.org/1999/02/22-rdf-syntax-ns#" xmlns:svg="http://www.w3.org/2000/svg" xmlns="http://www.w3.org/2000/svg" xmlns:sodipodi="http://sodipodi.sourceforge.net/DTD/sodipodi-0.dtd" xmlns:inkscape="http://www.inkscape.org/namespaces/inkscape" version="1.1" x="0px" y="0px" viewBox="0 0 100 125"><g transform="translate(0,-952.36218)"><path style="text-indent:0;text-transform:none;direction:ltr;block-progression:tb;baseline-shift:baseline;color:#000000;enable-background:accumulate;" d="m 28.3125,959.0184 -5.1875,10.34375 -3.125,0 c -1.5708,1.6e-4 -2.9998,1.42925 -3,3 l 0,12.00005 c 2e-4,1.5707 1.4292,2.9998 3,3 l 2.2188,0 4.7812,57.25 c 0.1244,1.4856 1.5092,2.755 3,2.75 l 40,0 c 1.4908,0 2.8756,-1.2644 3,-2.75 l 4.7812,-57.25 2.2188,0 c 1.5708,-2e-4 2.9998,-1.4293 3,-3 l 0,-12.00005 c -2e-4,-1.57075 -1.4292,-2.99984 -3,-3 l -3.125,0 -5.1875,-10.34375 C 71.1911,958.0277 70.1081,957.36027 69,957.36215 l -38,0 c -1.2384,0.0109 -2.2474,0.80829 -2.6875,1.65625 z m 4.5625,4.34375 34.25,0 3,6 -40.25,0 z m -9.875,12 54,0 0,6.00005 -54,0 z m 5.2812,12.00005 43.4376,0 -1.4063,17 -8.9687,0 c -2.5422,-3.5997 -6.6329,-6 -11.3438,-6 -4.7109,0 -8.8015,2.4003 -11.3438,6 l -8.9687,0 z m 21.7188,17 c 3.1371,0 5.8369,1.7598 7.1562,4.3437 0.4917,0.9815 1.5586,1.6467 2.6563,1.6563 l 10,0 -0.3437,4 -9.6563,0 c -1.0913,0 -2.1561,0.6551 -2.6563,1.625 -1.3193,2.5839 -4.0191,4.375 -7.1562,4.375 -3.1371,0 -5.8369,-1.7911 -7.1562,-4.375 -0.5002,-0.9699 -1.565,-1.6213 -2.6563,-1.625 l -9.6563,0 -0.3437,-4 10,0 c 1.0977,-0.01 2.1646,-0.6748 2.6563,-1.6563 1.3193,-2.5839 4.0191,-4.3437 7.1562,-4.3437 z m -18.9688,16 7.6563,0 c 2.5447,3.5796 6.6171,6 11.3125,6 4.6954,0 8.7678,-2.4204 11.3125,-6 l 7.6563,0 -1.75,21 -34.4376,0 z" fill="#000000" fill-opacity="1" stroke="none" marker="none" visibility="visible" display="inline" overflow="visible"/></g><text x="0" y="115" fill="#000000" font-size="5px" font-weight="bold" font-family="'Helvetica Neue', Helvetica, Arial-Unicode, Arial, Sans-serif">Created by Numero Uno</text><text x="0" y="120" fill="#000000" font-size="5px" font-weight="bold" font-family="'Helvetica Neue', Helvetica, Arial-Unicode, Arial, Sans-serif">from the Noun Project</text></svg>