<svg xmlns="http://www.w3.org/2000/svg" xmlns:xlink="http://www.w3.org/1999/xlink" version="1.1" x="0px" y="0px" viewBox="0 0 64 80" enable-background="new 0 0 64 64" xml:space="preserve"><g><path d="M47.2,52H34c-1.1,0-2,0.9-2,2s0.9,2,2,2h13.2c1.1,0,2-0.9,2-2S48.3,52,47.2,52z"/><path d="M61,22.3c-1.9-1.9-5-2.9-8-2.1v-1.7c0-1.1-0.5-1.5-1.6-1.5H18c-1.1,0-2,0.4-2,1.5V32c0,9.4,7.6,17,17,17h3.4   c7,0,13.1-4.3,15.7-10.4c0.6,0.2,1.3,0.3,2,0.3c2.3,0,4.9-1,7.1-3.2c1.8-1.8,2.7-4.2,2.7-6.7S62.8,24.1,61,22.3z M36.4,45H33   c-7.2,0-13-5.8-13-13V21h29v2.7c0,0,0,0,0,0V32C49,39.2,43.5,45,36.4,45z M58.4,32.9c-2,2-4.5,2.2-5.4,1.9c0.2-0.9,0.1-1.8,0.1-2.8   v-7.4c2-1.5,4.3-0.4,5.2,0.5c1,1,1.7,2.4,1.7,3.9S59.4,31.8,58.4,32.9z"/><path d="M24,50.7c-0.4-0.1-0.7-0.1-1.1-0.1c0.5-1.5,0.5-3-0.2-4.2c-0.6-0.9-1.5-1.5-2.6-1.8c-1.8-0.3-3.9,0.3-5.7,1.7   c-0.6,0.4-1,0.9-1.5,1.4c-3.8-2.6-8.4-2.9-11-0.5C0.6,48.3,0,49.8,0,51.6c0,2.6,1.4,5.4,3.7,7.5c2.2,2,5.1,3.1,7.7,3.1   c1.9,0,3.8-0.6,5.1-1.7c1.2,0.9,2.8,1.6,4.5,1.9c0.7,0.1,1.4,0.2,2.1,0.2c3.9,0,7.1-1.8,7.8-4.5c0.3-1.2,0.1-2.5-0.6-3.7   C29,52.5,26.7,51.1,24,50.7z M28.5,55.4c0.1,0.1,0.1,0.2,0.2,0.3c-1.1,0.5-2.9,1.2-4.2,1c-1.5-0.3-2.3-0.7-3.1-1.3   c-0.9-0.6-2-1.2-4-1.7c1.1-0.8,2.7-1.3,4.5-1.3c0.6,0,1.2,0,1.7,0.1C25.8,53,27.7,54,28.5,55.4z M21.2,48.3   c0.1,0.7-0.1,1.5-0.5,2.3c-0.4,0-0.8,0.1-1.2,0.2C20.2,50.1,20.8,49.1,21.2,48.3z M15.5,47.9c1.4-1,2.9-1.5,4.1-1.3c0,0,0,0,0.1,0   c-0.3,0.9-0.8,2.1-1.6,2.7c-1,0.7-1.6,0.9-2.4,1.1c0,0,0,0,0,0c-0.4-0.5-0.8-1-1.3-1.5C14.7,48.6,15.1,48.2,15.5,47.9z M13,50.4   c0.9,0.8,1.6,1.8,2.1,2.8c-0.5,0.5-0.8,1.2-1,1.8c-0.3,1.2-0.1,2.5,0.6,3.7c0.1,0.1,0.2,0.3,0.3,0.4c-0.2,0.2-0.4,0.3-0.7,0.4   c-2.2-2.1-2.6-3.3-3.1-4.6c-0.4-1.2-0.9-2.4-2.5-4c-1.5-1.5-4-2-5.6-2.2c0,0,0,0,0-0.1C5.3,46.6,9.8,47.4,13,50.4z M5,57.6   c-1.9-1.8-3-4.1-3-6.1c0-0.3,0-0.7,0.1-1c1.4,0.1,4,0.5,5.2,1.7c1.3,1.3,1.7,2.2,2.1,3.3c0.4,1.2,1,2.6,2.8,4.5   C9.9,60.3,7.1,59.6,5,57.6z M23.1,60.5c-0.6,0-1.2,0-1.7-0.1c-2.2-0.4-4-1.4-4.9-2.7c-0.4-0.7-0.6-1.4-0.4-2.1   c2.3,0.4,3.3,1,4.2,1.6c0.9,0.6,1.9,1.2,3.8,1.5c0.3,0.1,0.6,0.1,1,0.1c1.3,0,2.7-0.4,3.7-0.9C28.1,59.4,25.8,60.5,23.1,60.5z"/><circle cx="29" cy="13" r="2"/><circle cx="37" cy="9" r="2"/><circle cx="32" cy="3" r="2"/><circle cx="27" cy="7" r="1"/><circle cx="42" cy="14" r="1"/></g><text x="0" y="79" fill="#000000" font-size="5px" font-weight="bold" font-family="'Helvetica Neue', Helvetica, Arial-Unicode, Arial, Sans-serif">Created by Hardini Dwi Lestari</text><text x="0" y="84" fill="#000000" font-size="5px" font-weight="bold" font-family="'Helvetica Neue', Helvetica, Arial-Unicode, Arial, Sans-serif">from the Noun Project</text></svg>