<?xml version="1.0" encoding="UTF-8" standalone="no"?>
<svg
   xmlns:dc="http://purl.org/dc/elements/1.1/"
   xmlns:cc="http://creativecommons.org/ns#"
   xmlns:rdf="http://www.w3.org/1999/02/22-rdf-syntax-ns#"
   xmlns:svg="http://www.w3.org/2000/svg"
   xmlns="http://www.w3.org/2000/svg"
   xmlns:sodipodi="http://sodipodi.sourceforge.net/DTD/sodipodi-0.dtd"
   xmlns:inkscape="http://www.inkscape.org/namespaces/inkscape"
   version="1.1"
   x="0px"
   y="0px"
   viewBox="1157.245 2759.792 94.999 94.999"
   enable-background="new 1157.245 2759.792 94.999 93.832"
   xml:space="preserve"
   id="svg34"
   inkscape:version="0.91 r13725"
   sodipodi:docname="white_nodes.svg"
   width="94.999001"
   height="94.999001"><metadata
     id="metadata80"><rdf:RDF><cc:Work
         rdf:about=""><dc:format>image/svg+xml</dc:format><dc:type
           rdf:resource="http://purl.org/dc/dcmitype/StillImage" /><dc:title></dc:title></cc:Work></rdf:RDF></metadata><defs
     id="defs78" /><sodipodi:namedview
     pagecolor="#ffffff"
     bordercolor="#666666"
     borderopacity="1"
     objecttolerance="10"
     gridtolerance="10"
     guidetolerance="10"
     inkscape:pageopacity="0"
     inkscape:pageshadow="2"
     inkscape:window-width="1149"
     inkscape:window-height="896"
     id="namedview76"
     showgrid="false"
     inkscape:zoom="2.0121067"
     inkscape:cx="47.4995"
     inkscape:cy="58.645"
     inkscape:window-x="0"
     inkscape:window-y="0"
     inkscape:window-maximized="0"
     inkscape:current-layer="svg34" /><circle
     cx="1205.241"
     cy="2769.4905"
     r="9.1289997"
     id="circle36"
     style="fill:#ffffff" /><circle
     cx="1180.1959"
     cy="2778.6045"
     r="9.1289997"
     id="circle38"
     style="fill:#ffffff" /><circle
     cx="1166.87"
     cy="2801.6875"
     r="9.1280003"
     id="circle40"
     style="fill:#ffffff" /><circle
     cx="1171.4979"
     cy="2827.9336"
     r="9.1280003"
     id="circle42"
     style="fill:#ffffff" /><circle
     cx="1191.9139"
     cy="2845.0667"
     r="9.1280003"
     id="circle44"
     style="fill:#ffffff" /><circle
     cx="1218.5659"
     cy="2845.0667"
     r="9.1280003"
     id="circle46"
     style="fill:#ffffff" /><path
     d="m 1234.419,2835.8386 c -4.367,-2.518 -5.862,-8.104 -3.342,-12.469 2.521,-4.367 8.104,-5.863 12.47,-3.34 4.367,2.518 5.862,8.102 3.342,12.469 -2.522,4.365 -8.102,5.862 -12.47,3.34 z"
     id="path48"
     inkscape:connector-curvature="0"
     style="fill:#ffffff" /><path
     d="m 1245.196,2810.6766 c -4.964,0.877 -9.698,-2.438 -10.574,-7.404 -0.875,-4.965 2.438,-9.699 7.405,-10.574 4.965,-0.877 9.697,2.438 10.574,7.404 0.875,4.965 -2.439,9.697 -7.405,10.574 z"
     id="path50"
     inkscape:connector-curvature="0"
     style="fill:#ffffff" /><circle
     cx="1230.287"
     cy="2778.6077"
     r="9.1280003"
     id="circle52"
     style="fill:#ffffff" /><path
     d="m 1201.382,2777.7646 c -6.227,-2.904 -10.009,-1.527 -12.912,4.699 l -4.416,-12.133 c 6.228,2.904 10.01,1.527 12.913,-4.699 l 4.415,12.133 z"
     id="path54"
     inkscape:connector-curvature="0"
     style="fill:#ffffff" /><path
     d="m 1213.514,2765.6316 c 2.904,6.229 6.688,7.605 12.914,4.701 l -4.415,12.131 c -2.903,-6.229 -6.687,-7.604 -12.914,-4.699 l 4.415,-12.133 z"
     id="path56"
     inkscape:connector-curvature="0"
     style="fill:#ffffff" /><path
     d="m 1182.559,2787.4226 c -6.638,1.779 -8.649,5.266 -6.871,11.9 l -11.181,-6.453 c 6.638,-1.779 8.649,-5.266 6.871,-11.902 l 11.181,6.455 z"
     id="path58"
     inkscape:connector-curvature="0"
     style="fill:#ffffff" /><path
     d="m 1174.347,2806.9226 c -3.94,5.629 -3.243,9.594 2.387,13.533 l -12.714,2.242 c 3.941,-5.629 3.242,-9.594 -2.387,-13.535 l 12.714,-2.24 z"
     id="path60"
     inkscape:connector-curvature="0"
     style="fill:#ffffff" /><path
     d="m 1180.591,2827.1376 c 0.601,6.846 3.684,9.434 10.528,8.834 l -8.298,9.889 c -0.6,-6.846 -3.684,-9.432 -10.528,-8.832 l 8.298,-9.891 z"
     id="path62"
     inkscape:connector-curvature="0"
     style="fill:#ffffff" /><path
     d="m 1198.369,2838.6126 c 4.859,4.857 8.884,4.857 13.743,0 l -10e-4,12.908 c -4.858,-4.859 -8.885,-4.859 -13.742,0 l 0,-12.908 0,0 z"
     id="path64"
     inkscape:connector-curvature="0"
     style="fill:#ffffff" /><path
     d="m 1219.361,2835.9736 c 6.844,0.598 9.928,-1.988 10.525,-8.834 l 8.299,9.891 c -6.845,-0.6 -9.928,1.988 -10.525,8.832 l -8.299,-9.889 z"
     id="path66"
     inkscape:connector-curvature="0"
     style="fill:#ffffff" /><path
     d="m 1233.746,2820.4556 c 5.628,-3.939 6.326,-7.904 2.387,-13.531 l 12.716,2.242 c -5.628,3.939 -6.327,7.904 -2.387,13.531 l -12.716,-2.242 z"
     id="path68"
     inkscape:connector-curvature="0"
     style="fill:#ffffff" /><path
     d="m 1234.793,2799.3246 c 1.779,-6.639 -0.232,-10.123 -6.869,-11.902 l 11.181,-6.453 c -1.777,6.637 0.233,10.121 6.87,11.898 l -11.182,6.457 z"
     id="path70"
     inkscape:connector-curvature="0"
     style="fill:#ffffff" /></svg>